# xmcd
#
# Track frame offsets:
#	150
#	26153
#	45898
#	66080
#	88836
#	109205
#	129078
#	148527
#	165945
#	187966
#	207249
#	223804
#	242218
#	255474
#	266979
#
# Disc length: 3739 seconds
#
# Revision: 1
# Processed by: cddbd v1.5.2PL0 Copyright (c) Steve Scherf et al.
# Submitted via: audiograbber 1.83.01
#
DISCID=d50e990f
DTITLE=Julio Cesar e Marlene - Que Amor é Esse Ao Vivo Play Back
DYEAR=2008
DGENRE=Gospel
TTITLE0=Que Amor é Esse
TTITLE1=Por Onde Anda Voce
TTITLE2=Quem é como Nosso Deus
TTITLE3=Historia do Leproso
TTITLE4=Eu Cantaria
TTITLE5=Joia Rara
TTITLE6=Sonda-me
TTITLE7=A Igreja vai Subir
TTITLE8=Jardineiro que Chora
TTITLE9=O Escolhido
TTITLE10=Oliveira Verdadeira
TTITLE11=Jesus Nazareno
TTITLE12=Juntinho de Deus
TTITLE13=Desde Criança
TTITLE14=Alma Cansada
EXTD=
EXTT0=
EXTT1=
EXTT2=
EXTT3=
EXTT4=
EXTT5=
EXTT6=
EXTT7=
EXTT8=
EXTT9=
EXTT10=
EXTT11=
EXTT12=
EXTT13=
EXTT14=
PLAYORDER=
